<?xml version="1.0" encoding="utf-8"?>
<!-- Generator: Adobe Illustrator 16.0.4, SVG Export Plug-In . SVG Version: 6.00 Build 0)  -->
<!DOCTYPE svg PUBLIC "-//W3C//DTD SVG 1.1//EN" "http://www.w3.org/Graphics/SVG/1.1/DTD/svg11.dtd">
<svg version="1.1" id="Layer_1" xmlns="http://www.w3.org/2000/svg" xmlns:xlink="http://www.w3.org/1999/xlink" x="0px" y="0px"
	 width="256px" height="256px" viewBox="0 0 256 256" enable-background="new 0 0 256 256" xml:space="preserve">
<linearGradient id="SVGID_1_" gradientUnits="userSpaceOnUse" x1="128.0005" y1="256" x2="128.0005" y2="4.882812e-04">
	<stop  offset="0" style="stop-color:#83BEEC"/>
	<stop  offset="0.3824" style="stop-color:#7FBCEC"/>
	<stop  offset="0.7779" style="stop-color:#72B7EC"/>
	<stop  offset="1" style="stop-color:#68B2EC"/>
</linearGradient>
<rect fill="url(#SVGID_1_)" width="256" height="256"/>
<linearGradient id="SVGID_2_" gradientUnits="userSpaceOnUse" x1="128.0005" y1="166" x2="128.0005" y2="56.6318">
	<stop  offset="0" style="stop-color:#BEE1FC;stop-opacity:0"/>
	<stop  offset="1" style="stop-color:#BEE1FC;stop-opacity:0.5"/>
</linearGradient>
<path fill-rule="evenodd" clip-rule="evenodd" fill="url(#SVGID_2_)" d="M256,124.255c-11.1-15.015-32.125-15.471-38.256-5.073
	c4.157-57.4-73.186-57.993-87.556-30.305c-6.222-45.604-73.24-44.659-78.532,14.542C42.583,82.357,12.701,84.827,0,100.47V166h256
	V124.255z"/>
<g>
	<path fill="#68B2EC" d="M70.283,127.646c-0.781-2.511-2.341-3.146-4.856-3.146h-2.202v-13.028h9.579
		c7.062,0,9.739,1.733,11.776,8.471l14.123,47.259c1.264,4.091,1.89,8.486,1.89,8.486h0.312c0,0,0.942-4.396,2.194-8.486
		l17.128-55.421h13.966l17.271,55.421c1.264,4.091,2.041,8.486,2.041,8.486h0.313c0,0,0.634-4.396,1.886-8.486l13.965-47.259
		c2.055-6.738,4.883-8.471,11.946-8.471h9.418v13.028h-2.206c-2.512,0-4.076,0.635-4.861,3.146l-19.512,60.188h-19.848
		l-17.635-54.268l-16.651,54.268H89.297L70.283,127.646z"/>
	<path fill="#A5CDEC" d="M70.283,119.956c-0.781-2.512-2.341-3.146-4.856-3.146h-2.202v-13.028h9.579
		c7.062,0,10.051,1.733,12.088,8.471l16.012,51.116l18.673-58.506h15.264l18.508,58.808l15.853-51.115
		c2.054-6.738,5.351-8.774,12.414-8.774h9.418v13.028h-2.206c-2.512,0-4.076,0.634-4.861,3.146l-19.512,60.188h-19.848
		l-17.635-54.267l-16.651,54.267H89.297L70.283,119.956z"/>
	<path fill="#1D5987" d="M70.283,121.945c-0.781-2.512-2.341-3.146-4.856-3.146h-2.202v-13.027h9.579
		c7.062,0,9.739,1.733,11.776,8.476l14.123,47.257c1.264,4.088,1.89,8.484,1.89,8.484h0.312c0,0,0.942-4.396,2.194-8.484
		l17.128-55.42h13.966l17.271,55.42c1.264,4.088,2.041,8.484,2.041,8.484h0.313c0,0,0.634-4.396,1.886-8.484l13.965-47.257
		c2.055-6.743,4.883-8.476,11.946-8.476h9.418v13.027h-2.206c-2.512,0-4.076,0.634-4.861,3.146l-20.883,63.269h-17.106
		l-16.497-51.023c-1.251-4.088-2.199-8.636-2.199-8.636h-0.309c0,0-0.95,4.548-2.194,8.636l-16.336,51.023H91.178L70.283,121.945z"
		/>
	<g>
		<path fill="#FFFFFF" d="M40.127,129.624c0,0,0.489,4.437,2.244,12c0.875,3.779,2.1,8.329,3.78,13.448
			c1.696,5.111,3.896,10.78,6.78,16.714c2.901,5.921,6.54,12.087,11.107,18.033c4.574,5.936,10.165,11.581,16.732,16.342
			c6.601,4.718,14.256,8.329,22.428,10.656c8.154,2.332,16.935,3.275,25.518,3.126l3.333-0.119c1.1-0.057,2.25-0.028,3.286-0.191
			c2.118-0.272,4.239-0.433,6.352-0.782c2.104-0.443,4.231-0.779,6.305-1.302c1.027-0.295,2.054-0.589,3.078-0.882
			c1.017-0.314,2.067-0.529,3.044-0.948c8.011-2.801,15.395-6.933,21.675-12.067c6.289-5.124,11.574-11.066,15.882-17.212
			c4.275-6.175,7.665-12.484,10.382-18.498c2.697-6.026,4.765-11.747,6.366-16.892c1.582-5.151,2.753-9.717,3.578-13.509
			c1.661-7.586,2.141-12.021,2.141-12.021s-0.032,1.112-0.196,3.194c-0.172,2.081-0.445,5.136-1.039,8.996
			c-0.583,3.859-1.438,8.533-2.779,13.818c-1.33,5.286-3.108,11.199-5.626,17.453c-2.501,6.254-5.703,12.879-9.965,19.393
			c-4.264,6.494-9.575,12.911-16.145,18.415c-6.539,5.507-14.274,10.166-22.798,13.146c-1.038,0.448-2.146,0.688-3.225,1.028
			c-1.086,0.317-2.173,0.635-3.262,0.953c-2.194,0.567-4.438,0.941-6.665,1.42c-2.251,0.387-4.563,0.583-6.849,0.877
			c-1.164,0.177-2.245,0.151-3.363,0.216l-3.332,0.134l-1.755,0.059l-1.705-0.065l-3.407-0.134c-2.273-0.017-4.53-0.354-6.786-0.602
			c-1.125-0.154-2.261-0.206-3.372-0.446l-3.337-0.651c-1.105-0.241-2.231-0.38-3.314-0.707c-1.088-0.304-2.174-0.608-3.258-0.912
			c-8.658-2.484-16.694-6.576-23.583-11.66c-6.881-5.126-12.532-11.267-17.094-17.564c-4.584-6.301-8.05-12.809-10.751-18.983
			c-2.718-6.177-4.634-12.055-6.066-17.315c-1.444-5.261-2.354-9.927-2.991-13.778c-0.644-3.853-0.943-6.906-1.131-8.984
			C40.163,130.736,40.127,129.624,40.127,129.624z"/>
		<g>
			<g>
				<path fill="#D42D00" d="M224.417,64.397c-0.212,26.323-8.438,57.868-10.998,66.665c8.462-15.472,25.567-46.304,26.708-61.681
					C233.586,65.653,228.179,64.943,224.417,64.397z"/>
				<path fill="#D42D00" d="M213.419,131.062c0.092-0.178,8.001-41.43,7.93-66.969c-14.812-2.625-41.316,2.22-43.945,2.861
					C199.351,83.288,212.656,118.942,213.419,131.062z"/>
			</g>
			<g>
				<path fill="#FF3600" d="M208.769,17.824c4.277,3.695,15.378,24.145,15.598,43.949c7.05,0.702,13.97,5.008,15.761,7.609
					C238.344,55.795,217.392,23.079,208.769,17.824z"/>
				<path fill="#FF3600" d="M177.403,66.955c12.107-4.734,32.688-7.155,43.906-5.766c-2.07-28.583-9.705-39.298-12.541-43.365
					C198.307,44.138,193.162,52.938,177.403,66.955z"/>
			</g>
		</g>
	</g>
</g>
</svg>
